#format: frame checksums
#version: 1
#hash: MD5
#tb 0: 1001/30000
#stream#, dts,        pts, duration,     size, hash
0,          0,          0,        1,    68478, 5aa0f439c58c6335cd86d4238a8c4b68
0,          1,          1,        1,    68478, 3616cc306ec05f89d9b0db63200e4abf
0,          2,          2,        1,    68478, 424e98f8ec0ebf2a326a917ee0159bbe
0,          3,          3,        1,    68478, ed5710e412f056fa8c1a277d86dd45d7
0,          4,          4,        1,    68478, 760b850feab485f0bda6cde9943102bc
0,          5,          5,        1,    68478, f4bd90ca72aa707f9b68e6192ac230fd
0,          6,          6,        1,    68478, 58e4aad0bc2a9f3fc279df10208bd6f6
0,          7,          7,        1,    68478, b42f84723dd167d5c544d539275ad537
0,          8,          8,        1,    68478, 5f54feca21331646e68797380260932a
0,          9,          9,        1,    68478, 8e787dd318024aff25af8b4d85040f3c
